HIERARCHY
ROOT Hips
{
	OFFSET 0.000000 0.000000 0.000000
	CHANNELS 6 Xposition Yposition Zposition Xrotation Yrotation Zrotation
	JOINT LeftUpLeg_virtual
	{
		OFFSET 0.000000 0.000000 0.000000
		CHANNELS 3 Xrotation Yrotation Zrotation
		JOINT LeftUpLeg
		{
			OFFSET 13.026900 -6.336304 -1.092800
			CHANNELS 3 Xrotation Yrotation Zrotation
			JOINT LeftLeg
			{
				OFFSET 0.524474 -46.096886 9.782700
				CHANNELS 3 Xrotation Yrotation Zrotation
				JOINT LeftFoot
				{
					OFFSET -0.524474 -53.427422 -12.948200
					CHANNELS 3 Xrotation Yrotation Zrotation
					JOINT LeftToeBase
					{
						OFFSET 0.192200 -14.009700 16.364100
						CHANNELS 3 Xrotation Yrotation Zrotation
						JOINT LeftToe_End
						{
							OFFSET -1.784700 -0.561700 9.474800
							CHANNELS 3 Xrotation Yrotation Zrotation
							End Site
							{
								OFFSET 0 0 0
							}
						}
					}
				}
			}
		}
	}
	JOINT RightUpLeg_virtual
	{
		OFFSET 0.000000 0.000000 0.000000
		CHANNELS 3 Xrotation Yrotation Zrotation
		JOINT RightUpLeg
		{
			OFFSET -12.883000 -6.336304 -1.092800
			CHANNELS 3 Xrotation Yrotation Zrotation
			JOINT RightLeg
			{
				OFFSET -0.524587 -46.096825 9.782800
				CHANNELS 3 Xrotation Yrotation Zrotation
				JOINT RightFoot
				{
					OFFSET 0.524587 -53.427383 -12.948300
					CHANNELS 3 Xrotation Yrotation Zrotation
					JOINT RightToeBase
					{
						OFFSET -0.192200 -14.009700 16.364100
						CHANNELS 3 Xrotation Yrotation Zrotation
						JOINT RightToe_End
						{
							OFFSET 1.784700 -0.561700 9.474800
							CHANNELS 3 Xrotation Yrotation Zrotation
							End Site
							{
								OFFSET 0 0 0
							}
						}
					}
				}
			}
		}
	}
	JOINT Spine_virtual
	{
		OFFSET 0.000000 0.000000 0.000000
		CHANNELS 3 Xrotation Yrotation Zrotation
		JOINT Spine
		{
			OFFSET 0.072000 7.257294 -0.789700
			CHANNELS 3 Xrotation Yrotation Zrotation
			JOINT Spine1
			{
				OFFSET 0.000000 12.508769 -0.658067
				CHANNELS 3 Xrotation Yrotation Zrotation
				JOINT Spine1_split
				{
					OFFSET 0.000000 12.508769 -0.658067
					CHANNELS 3 Xrotation Yrotation Zrotation
					JOINT Spine2
					{
						OFFSET 0.000000 12.508769 -0.658067
						CHANNELS 3 Xrotation Yrotation Zrotation
						JOINT Neck_virtual
						{
							OFFSET 0.000000 0.000000 0.000000
							CHANNELS 3 Xrotation Yrotation Zrotation
							JOINT Neck
							{
								OFFSET 0.000000 14.033295 7.520400
								CHANNELS 3 Xrotation Yrotation Zrotation
								JOINT Head
								{
									OFFSET 0.000000 8.198502 5.703100
									CHANNELS 3 Xrotation Yrotation Zrotation
									JOINT HeadTop_End
									{
										OFFSET 0.000000 17.760803 13.332701
										CHANNELS 3 Xrotation Yrotation Zrotation
										End Site
										{
											OFFSET 0 0 0
										}
									}
								}
							}
						}
						JOINT LeftShoulder_virtual
						{
							OFFSET 0.000000 0.000000 0.000000
							CHANNELS 3 Xrotation Yrotation Zrotation
							JOINT LeftShoulder
							{
								OFFSET 6.292450 5.785301 -0.669000
								CHANNELS 3 Xrotation Yrotation Zrotation
								JOINT LeftShoulder_split
								{
									OFFSET 6.292450 5.785301 -0.669000
									CHANNELS 3 Xrotation Yrotation Zrotation
									JOINT LeftArm
									{
										OFFSET 13.907140 -6.093903 1.965100
										CHANNELS 3 Xrotation Yrotation Zrotation
										JOINT LeftForeArm
										{
											OFFSET 34.140198 0.000000 0.000000
											CHANNELS 3 Xrotation Yrotation Zrotation
											JOINT LeftHand
											{
												OFFSET 40.960209 0.000000 0.000000
												CHANNELS 3 Xrotation Yrotation Zrotation
												End Site
												{
													OFFSET 0 0 0
												}
											}
										}
									}
								}
							}
						}
						JOINT RightShoulder_virtual
						{
							OFFSET 0.000000 0.000000 0.000000
							CHANNELS 3 Xrotation Yrotation Zrotation
							JOINT RightShoulder
							{
								OFFSET -6.292450 5.785301 -0.669000
								CHANNELS 3 Xrotation Yrotation Zrotation
								JOINT RightShoulder_split
								{
									OFFSET -6.292450 5.785301 -0.669000
									CHANNELS 3 Xrotation Yrotation Zrotation
									JOINT RightArm
									{
										OFFSET -13.907140 -6.093903 1.965100
										CHANNELS 3 Xrotation Yrotation Zrotation
										JOINT RightForeArm
										{
											OFFSET -34.140198 0.000000 0.000000
											CHANNELS 3 Xrotation Yrotation Zrotation
											JOINT RightHand
											{
												OFFSET -40.960209 0.000000 0.000000
												CHANNELS 3 Xrotation Yrotation Zrotation
												End Site
												{
													OFFSET 0 0 0
												}
											}
										}
									}
								}
							}
						}
					}
				}
			}
		}
	}
}
MOTION
Frames: 8
Frame Time: 0.03333333
1.635355 116.930481 -0.202301 0.000000 0.000000 0.000000 2.590987 -31.452878 1.017682 -16.238013 15.819860 13.117963 15.773328 13.339000 -1.682122 -3.304573 -5.127664 -5.048106 2.438220 -0.113353 -0.728002 0.000000 0.000000 0.000000 4.105185 -31.151858 1.119708 -8.885585 1.508620 -7.095114 7.953812 8.005565 0.038657 -0.568258 -0.410096 3.155318 -3.492186 0.030365 -0.557887 0.000000 0.000000 0.000000 3.560640 -29.020121 0.573389 8.892476 1.781057 0.020903 0.795077 -0.777548 2.099947 0.061995 -0.735937 1.002697 0.000000 0.000000 0.000000 1.920281 -0.263890 2.266369 -4.689684 21.278362 -6.084342 -6.044587 13.099085 -0.025179 0.000000 0.000000 0.000000 1.445784 -0.605980 2.671024 0.824794 -10.630372 -1.197171 2.183909 -0.346526 1.033127 -60.277389 0.445869 -37.260239 6.932679 -59.703920 9.405443 0.000000 0.000000 0.000000 0.434081 -0.624277 2.834159 4.054760 7.542796 7.125633 -2.432646 -3.153650 -1.819890 -1.566523 3.125767 65.296595 13.042245 24.604109 -4.257325 0.000000 0.000000 0.000000 
1.635732 116.762650 -0.422039 0.000000 0.000000 0.000000 2.600560 -31.830106 1.318889 -16.309708 16.172308 12.981481 15.779875 13.187398 -1.570711 -3.376893 -5.456539 -5.019016 2.228125 -0.090030 -0.726136 0.000000 0.000000 0.000000 4.236705 -31.369744 1.382117 -8.807400 0.914368 -7.208993 7.824996 7.899565 0.087216 -0.305957 -0.405448 3.759505 -4.787631 -0.066386 -0.429731 0.000000 0.000000 0.000000 3.376083 -29.100543 0.628096 8.893486 1.741145 -0.114327 0.746768 -0.805520 2.143890 0.213196 -0.902018 1.228839 0.000000 0.000000 0.000000 1.941893 -0.302457 2.344551 -4.349518 21.686926 -6.110978 -6.053749 13.574116 -0.216118 0.000000 0.000000 0.000000 1.297243 -0.627094 2.693385 0.784704 -10.026827 -1.443636 2.094949 -0.564604 1.052253 -60.149269 0.697880 -36.913757 6.895281 -59.766505 9.206467 0.000000 0.000000 0.000000 0.375799 -0.666297 2.910373 3.956837 7.575132 7.440349 -2.379071 -3.553356 -1.779595 -0.857502 3.099003 64.854600 13.112290 24.451667 -4.289843 0.000000 0.000000 0.000000 
1.706632 116.572693 -0.739094 0.000000 0.000000 0.000000 2.999150 -31.734944 1.721002 -16.465906 16.222531 12.724569 15.815102 12.896649 -1.405174 -3.299181 -6.148999 -4.986178 2.074504 -0.049219 -0.715396 0.000000 0.000000 0.000000 4.368811 -31.160375 1.772031 -8.698055 0.133726 -7.564379 8.275686 7.626520 0.085784 -1.071699 -0.319510 4.180344 -4.721837 -0.187169 -0.347168 0.000000 0.000000 0.000000 3.408844 -28.991506 0.800798 8.701369 1.643227 -0.382096 0.696673 -0.805324 2.221461 0.432973 -1.069920 1.310304 0.000000 0.000000 0.000000 1.867109 -0.309908 2.472065 -4.145304 22.697309 -6.095239 -5.901833 15.146636 -0.579158 0.000000 0.000000 0.000000 1.183342 -0.620323 2.733715 0.748068 -8.901835 -1.575495 2.103126 -0.764344 1.044756 -59.812704 1.445421 -36.225134 6.419045 -60.092906 8.596479 0.000000 0.000000 0.000000 0.353585 -0.663091 3.011164 3.895413 7.680848 7.784368 -2.333293 -3.534860 -1.710195 0.121445 2.804443 64.264622 13.181661 24.449159 -4.303520 0.000000 0.000000 0.000000 
1.807505 116.407410 -0.988514 0.000000 0.000000 0.000000 3.653434 -31.193293 2.093143 -16.760714 16.012810 12.483243 15.757062 12.616426 -1.245520 -3.112386 -7.063345 -4.900843 2.090325 0.010320 -0.720739 0.000000 0.000000 0.000000 4.579947 -30.496016 2.132984 -8.737373 -0.592416 -8.058021 9.072862 7.203729 0.056531 -2.547802 -0.061072 4.848696 -3.622775 -0.283468 -0.511391 0.000000 0.000000 0.000000 3.623434 -28.715034 0.969357 8.396445 1.528900 -0.678811 0.639686 -0.745110 2.295759 0.389526 -1.180270 1.221775 0.000000 0.000000 0.000000 1.678451 -0.259682 2.598948 -4.085934 24.220134 -6.099154 -5.603628 17.549923 -1.087498 0.000000 0.000000 0.000000 1.140099 -0.557632 2.756663 0.721204 -7.355757 -1.585365 2.205614 -0.802759 1.172075 -59.288433 2.657172 -35.141170 5.547835 -60.536335 7.643035 0.000000 0.000000 0.000000 0.367288 -0.579524 3.088768 3.856789 7.887372 8.096388 -2.175240 -3.079252 -1.640931 1.115364 2.382277 63.682874 13.253758 24.538360 -4.292572 0.000000 0.000000 0.000000 
1.934692 116.246788 -1.115135 0.000000 0.000000 0.000000 4.396883 -30.315146 2.319943 -17.324879 15.609998 12.303123 15.694129 12.381704 -1.101211 -2.880875 -8.021522 -4.744692 2.296957 0.086441 -0.764058 0.000000 0.000000 0.000000 4.943381 -29.549102 2.347003 -9.036651 -1.160591 -8.513922 10.066806 6.789815 -0.058764 -4.112396 0.348053 6.576485 -3.252369 -0.321729 -1.081030 0.000000 0.000000 0.000000 3.982894 -28.330226 1.078736 8.006746 1.467430 -0.885827 0.579336 -0.603269 2.330740 0.317417 -1.223413 1.077121 0.000000 0.000000 0.000000 1.423531 -0.119783 2.662058 -4.104259 26.188193 -6.198178 -5.246058 20.517091 -1.719526 0.000000 0.000000 0.000000 1.170417 -0.399126 2.728630 0.704285 -5.537530 -1.500023 2.323393 -0.735749 1.373947 -58.621273 4.251285 -33.713803 4.523793 -60.999415 6.553740 0.000000 0.000000 0.000000 0.422965 -0.388811 3.091585 3.818172 8.150913 8.362032 -1.960766 -2.381380 -1.654224 1.927105 1.939729 63.202274 13.313855 24.593486 -4.256477 0.000000 0.000000 0.000000 
2.154694 116.058014 -0.953293 0.000000 0.000000 0.000000 4.986844 -29.197771 2.309240 -18.036419 15.219473 12.181333 15.850893 12.203993 -1.015229 -2.677140 -8.885282 -4.523844 2.580528 0.169913 -0.837204 0.000000 0.000000 0.000000 5.349816 -28.323616 2.341249 -9.504329 -1.480999 -8.739713 11.067925 6.432708 -0.352709 -5.621362 0.724522 9.194452 -4.138697 -0.281373 -1.941354 0.000000 0.000000 0.000000 4.304537 -27.776276 1.082532 7.605615 1.510371 -0.928603 0.536267 -0.351300 2.297314 0.370510 -1.156685 0.972760 0.000000 0.000000 0.000000 1.163485 0.134300 2.624296 -4.098637 28.456231 -6.469449 -4.919479 23.741726 -2.458906 0.000000 0.000000 0.000000 1.267594 -0.122311 2.628669 0.699819 -3.608103 -1.399619 2.398877 -0.844470 1.421170 -57.935126 5.983336 -32.100687 3.596677 -61.558077 5.561310 0.000000 0.000000 0.000000 0.517986 -0.077799 2.990310 3.760225 8.430319 8.594756 -1.706421 -1.791378 -1.682041 2.459974 1.470590 62.867698 13.327122 24.350417 -4.190863 0.000000 0.000000 0.000000 
2.503453 115.806961 -0.523495 0.000000 0.000000 0.000000 5.309428 -27.919172 2.153342 -18.805700 14.997552 12.042062 16.535111 12.162858 -1.029675 -2.550720 -9.579297 -4.134439 2.799527 0.244050 -0.909291 0.000000 0.000000 0.000000 5.730777 -26.794349 2.151628 -10.073662 -1.676596 -8.710561 12.536495 5.880015 -0.815948 -7.111053 0.682040 11.179424 -5.184416 -0.180624 -2.646492 0.000000 0.000000 0.000000 4.493978 -27.062307 1.028484 7.251575 1.666907 -0.782752 0.514325 0.008980 2.188217 0.494466 -0.845526 0.970060 0.000000 0.000000 0.000000 0.965475 0.493608 2.475980 -3.924488 30.907139 -6.950066 -4.687990 27.021582 -3.261943 0.000000 0.000000 0.000000 1.389493 0.267282 2.452734 0.701678 -1.656306 -1.396549 2.545556 -1.180724 1.422703 -57.297412 7.579158 -30.478462 2.976297 -62.405990 4.841715 0.000000 0.000000 0.000000 0.646038 0.335572 2.787131 3.698721 8.683265 8.810501 -1.386914 -1.405987 -1.705551 2.717075 0.950134 62.710125 13.267316 23.673793 -4.101062 0.000000 0.000000 0.000000 
2.961692 115.375305 0.054386 0.000000 0.000000 0.000000 5.456283 -26.581339 2.064517 -19.635640 15.056735 11.756030 17.992860 12.192029 -1.171944 -2.536977 -10.132128 -3.614986 2.735898 0.299372 -0.914469 0.000000 0.000000 0.000000 5.914229 -25.212264 1.973731 -11.116573 -1.933561 -8.606675 15.045799 4.892902 -1.354629 -8.222020 0.095717 11.587734 -6.073846 -0.117998 -2.690565 0.000000 0.000000 0.000000 4.568672 -26.047350 1.065057 6.967370 1.920701 -0.527171 0.511835 0.441766 2.021913 0.619281 -0.581103 1.035611 0.000000 0.000000 0.000000 0.901237 0.937397 2.247552 -3.485372 33.412599 -7.678976 -4.565532 30.166637 -4.106970 0.000000 0.000000 0.000000 1.475002 0.746912 2.233352 0.703720 0.272693 -1.572926 2.732773 -1.639883 1.393025 -56.853784 8.945615 -28.861357 2.663500 -63.621860 4.413766 0.000000 0.000000 0.000000 0.765469 0.795928 2.507033 3.652839 8.843839 8.988133 -0.950742 -1.249600 -1.779741 2.717666 0.343160 62.716737 13.125002 22.655840 -4.015126 0.000000 0.000000 0.000000 
